<svg xmlns="http://www.w3.org/2000/svg" width="21.143" height="24.274" viewBox="0 0 21.143 24.274"><defs><style>.a{fill:#ee6e73;}</style></defs><path class="a" d="M259.8,32.133a4.52,4.52,0,1,0,4.52,4.52A4.525,4.525,0,0,0,259.8,32.133Zm0,0" transform="translate(-243.178 -30.609)"/><path d="M16.488,78.093V73.2A5.94,5.94,0,0,1,11.3,64.623a7.49,7.49,0,0,0-9.777,7.125v6.345a2.235,2.235,0,0,0,.711,4.353H15.777a2.235,2.235,0,0,0,.711-4.353Zm0,0" transform="translate(0 -61.219)"/><path d="M127.837,479.359a3.756,3.756,0,0,0,3.091-1.625h-6.183A3.756,3.756,0,0,0,127.837,479.359Zm0,0" transform="translate(-118.832 -455.085)"/><path d="M147.759,1.9a2.235,2.235,0,0,0-4.419,0,8.962,8.962,0,0,1,4.419,0Zm0,0" transform="translate(-136.544)"/></svg>